<?xml version="1.0" encoding="UTF-8"?>
<svg version="1.1" xmlns="http://www.w3.org/2000/svg" width="1201" height="401">
<path d="M0 0 C10.88448559 10.27003882 18.47554059 24.36882021 19.12051582 39.60024643 C19.15402323 42.12387143 19.15491605 44.64560346 19.14477539 47.16943359 C19.14492142 48.12615967 19.14506744 49.08288574 19.1452179 50.06860352 C19.14452357 53.21763408 19.13675369 56.36660482 19.12890625 59.515625 C19.12704036 61.70423348 19.12561727 63.89284237 19.12461853 66.08145142 C19.12080679 71.8320634 19.11098798 77.58264998 19.09991455 83.33325195 C19.08967154 89.20523739 19.08511472 95.07722695 19.08007812 100.94921875 C19.0693645 112.4635528 19.05230422 123.97786804 19.03125 135.4921875 C21.90267246 135.49124357 24.76284788 135.44731836 27.6328125 135.37890625 C28.4379126 135.38305542 29.2430127 135.38720459 30.07250977 135.39147949 C34.67827909 135.24498556 37.32272213 134.72813611 40.70393372 131.47180176 C42.70462693 129.24774161 44.57000295 126.95180672 46.23046875 124.4609375 C48.97745951 120.49984466 52.03419015 116.91727149 55.21875 113.3046875 C58.78407001 109.16836593 62.2810024 104.98565719 65.71875 100.7421875 C69.27392904 96.36066955 72.99894537 92.17508069 76.796875 88.00390625 C79.03259533 85.49067518 81.16502682 82.91907271 83.28125 80.3046875 C86.88595085 75.85366558 90.58495267 71.50020145 94.34375 67.1796875 C94.89482422 66.54619385 95.44589844 65.9127002 96.01367188 65.26000977 C97.13287485 63.97387095 98.25217837 62.68781962 99.37158203 61.40185547 C106.27167148 53.46238803 113.1182137 45.48952744 119.703125 37.28515625 C123.04890372 33.27134453 126.55967591 29.39770835 130.03125 25.4921875 C100.33125 25.1621875 70.63125 24.8321875 40.03125 24.4921875 C40.03125 12.2821875 40.03125 0.0721875 40.03125 -12.5078125 C88.21125 -12.5078125 136.39125 -12.5078125 186.03125 -12.5078125 C186.03125 24.4921875 186.03125 24.4921875 176.03125 35.4921875 C172.6277079 39.64146992 172.6277079 39.64146992 169.24609375 43.80859375 C167.07492173 46.43927307 164.82883643 48.97161174 162.53125 51.4921875 C159.50842579 54.81208236 156.60612839 58.18982862 153.78125 61.6796875 C148.56738562 68.11767656 143.12083747 74.34382316 137.68212891 80.59130859 C130.78243267 88.53585678 123.96593727 96.55224016 117.1796875 104.59375 C114.79550166 107.4164068 112.4016649 110.23013691 109.9921875 113.03125 C109.47720703 113.63001953 108.96222656 114.22878906 108.43164062 114.84570312 C107.46539572 115.96783389 106.49807969 117.08904396 105.52929688 118.20898438 C100.92344253 123.5575083 96.50679567 129.02207613 92.03125 134.4921875 C123.71125 134.8221875 155.39125 135.1521875 188.03125 135.4921875 C188.03125 147.7021875 188.03125 159.9121875 188.03125 172.4921875 C164.08294879 172.58254533 140.13478599 172.65620307 116.1863575 172.69943619 C105.06623346 172.72004526 93.946223 172.74813429 82.82617188 172.79394531 C73.13185768 172.83386366 63.43762576 172.85963234 53.74323165 172.86854148 C48.6119829 172.87374774 43.48096949 172.88594997 38.3497963 172.91510773 C33.51530825 172.94235574 28.68115141 172.95061355 23.84659386 172.94461823 C22.07696289 172.94571427 20.30732029 172.95361205 18.53775597 172.9690094 C6.23674884 173.07074912 -3.8756635 172.32207793 -13.21875 163.46875 C-18.59620812 157.39510311 -20.98011507 150.23654631 -22.96875 142.4921875 C-23.38125 143.39839844 -23.79375 144.30460938 -24.21875 145.23828125 C-30.74311478 159.17225502 -38.6028505 167.81112969 -53.09375 173.7421875 C-71.13436045 179.79795421 -93.07523768 179.01033123 -110.32421875 170.91796875 C-123.61477513 163.57101522 -130.60532202 153.71976853 -135.20703125 139.3515625 C-139.05542617 124.90528002 -137.90242028 108.85800769 -131.4609375 95.32421875 C-123.03853261 81.12365237 -109.07412757 73.60184624 -93.59375 69.1171875 C-77.95054929 65.52967437 -62.31939007 65.21684856 -46.34375 65.3671875 C-44.45052566 65.37725439 -42.55729603 65.38637357 -40.6640625 65.39453125 C-36.09882382 65.41621194 -31.53384828 65.4505293 -26.96875 65.4921875 C-27.09952633 62.28084276 -27.24209421 59.07012353 -27.38671875 55.859375 C-27.42341675 54.95469482 -27.46011475 54.05001465 -27.4979248 53.11791992 C-27.90356576 44.35367745 -29.06349724 36.35504881 -34.96875 29.4921875 C-44.11212929 22.32521552 -54.99250798 20.99424869 -66.34765625 21.703125 C-82.11258434 23.67606759 -92.21701602 32.43083231 -101.96875 44.4921875 C-107.57535393 40.46830908 -112.67522676 36.13788947 -117.65625 31.3671875 C-121.64422409 27.56873291 -125.59560138 23.85357516 -129.96875 20.4921875 C-128.53911224 16.04893832 -126.11609325 13.02579895 -122.96875 9.6796875 C-122.47673096 9.15415283 -121.98471191 8.62861816 -121.4777832 8.0871582 C-92.82683251 -21.96207296 -32.6482734 -27.57919938 0 0 Z M-85.96875 103.4921875 C-91.51700752 110.06790011 -90.43318424 118.32158512 -89.96875 126.4921875 C-89.14896589 131.09131532 -87.5274536 133.92078609 -84.21875 137.3046875 C-74.76304437 143.66910475 -64.79381864 144.60199291 -53.71875 143.03125 C-43.30463872 140.94351543 -35.2607645 137.21576603 -29.02734375 128.421875 C-26.7691181 124.30540463 -26.85075804 120.39435339 -26.87109375 115.7578125 C-26.87431641 114.46230469 -26.87753906 113.16679687 -26.88085938 111.83203125 C-26.88921402 110.46874933 -26.89767896 109.10546808 -26.90625 107.7421875 C-26.91126832 106.36328285 -26.91583065 104.98437646 -26.91992188 103.60546875 C-26.93170907 100.23433091 -26.94816365 96.86328122 -26.96875 93.4921875 C-31.43040577 93.44202619 -35.89190374 93.40611571 -40.35375977 93.38232422 C-41.86550767 93.37238589 -43.37723699 93.35883052 -44.88891602 93.34130859 C-67.34789073 92.72338966 -67.34789073 92.72338966 -85.96875 103.4921875 Z " fill="#0259C9" transform="translate(386.96875,154.5078125)"/>
<path d="M0 0 C17.82 0 35.64 0 54 0 C67.56260631 24.86477824 67.56260631 24.86477824 73.05456543 35.64526367 C77.82455919 45.00295059 82.65773724 54.31273192 87.75 63.5 C93.59770795 74.07198004 99.10981946 84.81466789 104.625 95.5625 C105.07500366 96.43777344 105.52500732 97.31304687 105.98864746 98.21484375 C107.27904003 100.72646489 108.5659709 103.23982488 109.8515625 105.75390625 C110.2406076 106.51131607 110.62965271 107.26872589 111.03048706 108.04908752 C112.86374802 111.64611943 114.58596241 115.21136732 116 119 C116.66 119 117.32 119 118 119 C118.22300781 118.21753906 118.44601563 117.43507813 118.67578125 116.62890625 C120.42919329 111.82383314 122.78662321 107.44701348 125.1875 102.9375 C126.27795363 100.86881095 127.36776732 98.79978448 128.45703125 96.73046875 C129.03404785 95.63653809 129.61106445 94.54260742 130.20556641 93.41552734 C132.97239725 88.14913776 135.7025433 82.86385951 138.43139648 77.57772827 C140.01945538 74.50171161 141.60946146 71.42670163 143.19921875 68.3515625 C143.51519012 67.74025986 143.8311615 67.12895721 144.15670776 66.49913025 C149.75959429 55.660103 155.37601692 44.82809458 161 34 C161.55381348 32.93362305 162.10762695 31.86724609 162.67822266 30.76855469 C164.2840436 27.67828573 165.89166289 24.58896004 167.5 21.5 C168.20225708 20.14865967 168.20225708 20.14865967 168.91870117 18.77001953 C172.20401731 12.4678166 175.59517736 6.24217484 179 0 C196.16 0 213.32 0 231 0 C231 81.51 231 163.02 231 247 C216.15 247 201.3 247 186 247 C185.67 189.25 185.34 131.5 185 72 C174.605 93.285 174.605 93.285 164 115 C160.50838622 121.54677585 157.03959468 128.04877561 153.39794922 134.50244141 C150.73272692 139.26409424 148.15461708 144.07329111 145.5625 148.875 C144.47542316 150.88290062 143.38818342 152.89071305 142.30078125 154.8984375 C140.06631028 159.02719236 137.83504269 163.15766136 135.60546875 167.2890625 C129.50514057 178.58498675 123.35004381 189.84230029 117 201 C116.01 201 115.02 201 114 201 C113.60844727 200.26700684 113.21689453 199.53401367 112.81347656 198.77880859 C105.75461153 185.56970652 98.6806787 172.37055244 91.49121094 159.23193359 C87.02668139 151.06681835 82.61511848 142.87361364 78.21508789 134.67358398 C75.46082854 129.54615538 72.69344194 124.42799897 69.8671875 119.33984375 C62.83343934 106.65748975 56.40774516 93.75789785 50.25170898 80.62695312 C48.87267651 77.73278707 47.43373134 74.86746267 46 72 C45.67 129.75 45.34 187.5 45 247 C30.15 247 15.3 247 0 247 C0 165.49 0 83.98 0 0 Z " fill="#0259C9" transform="translate(5,85)"/>
<path d="M0 0 C15.18 0 30.36 0 46 0 C46.33 34.65 46.66 69.3 47 105 C48.65 101.7 50.3 98.4 52 95 C61.78511036 82.13109729 73.00946307 74.64068157 89.1875 72.25 C105.51773382 71.179165 122.08011421 72.68486617 135.203125 83.421875 C135.79609375 83.94265625 136.3890625 84.4634375 137 85 C137.59296875 85.50015625 138.1859375 86.0003125 138.796875 86.515625 C152.84557886 99.32108073 156.78088821 118.85317663 158 137 C158.32276434 145.98367337 158.24141418 154.97692696 158.20278788 163.9648335 C158.19011092 167.42274999 158.18909688 170.88067164 158.18673706 174.33860779 C158.18057132 180.85815412 158.16422847 187.37763173 158.14403808 193.89714807 C158.12152439 201.33149027 158.11064714 208.7658361 158.10064721 216.20020401 C158.07985663 231.46684901 158.04324345 246.73339958 158 262 C142.82 262 127.64 262 112 262 C111.98018066 258.52903809 111.96036133 255.05807617 111.93994141 251.48193359 C111.87283808 239.97477791 111.79529807 228.46770544 111.71247292 216.96065331 C111.66254032 209.98843918 111.6160968 203.01623569 111.578125 196.04394531 C111.54142521 189.30707567 111.49466116 182.57034261 111.44193649 175.8335762 C111.42349757 173.27178729 111.4083515 170.70997235 111.39665604 168.14814377 C111.96840393 142.27272667 111.96840393 142.27272667 102.8125 118.6875 C96.93210492 113.06845582 90.264813 111.31484716 82.24609375 110.90625 C72.27671564 111.19417428 62.80299982 113.60268765 55 120 C49.87163905 125.44888351 46.76593017 130.89828565 46.7215271 138.49861145 C46.71036362 139.59091064 46.69920013 140.68320984 46.68769836 141.80860901 C46.68553818 142.9968779 46.68337799 144.18514679 46.68115234 145.40942383 C46.66608391 147.29783493 46.66608391 147.29783493 46.65071106 149.22439575 C46.62345315 152.66819184 46.60827422 156.11194712 46.59528303 159.55582261 C46.57963401 163.15800539 46.55284945 166.76010505 46.5272522 170.36222839 C46.48049572 177.17960428 46.4437365 183.99699585 46.41057932 190.81444997 C46.37233578 198.57746839 46.32293148 206.34040327 46.27259517 214.10335124 C46.16932187 230.0688465 46.08151982 246.03437659 46 262 C30.82 262 15.64 262 0 262 C0 175.54 0 89.08 0 0 Z " fill="#0259C9" transform="translate(592,70)"/>
<path d="M0 0 C17.31792041 15.68468564 27.69691019 37.86818923 29.40234375 61.17578125 C30.87443357 94.33285191 27.80964893 125.00983384 5.00390625 150.8984375 C-10.76871113 167.7117701 -31.99829535 174.370625 -54.59375 175.1328125 C-72.3585329 175.45206367 -91.01319558 171.83941945 -105.59765625 161.17578125 C-106.47421875 160.55316406 -107.35078125 159.93054688 -108.25390625 159.2890625 C-128.1617711 144.16244047 -137.90919812 121.32455618 -141.37890625 97.078125 C-145.04112328 67.40635132 -141.21434412 37.00076526 -123.59765625 12.17578125 C-109.92000944 -5.23662988 -91.42396775 -15.14491342 -69.69921875 -18.41015625 C-44.81666977 -21.26763993 -19.48431897 -16.34466568 0 0 Z M-85.41015625 30.92578125 C-91.24381495 37.97760534 -93.69258183 46.57296678 -93.75878906 55.61767578 C-93.76839661 56.68293488 -93.77800415 57.74819397 -93.78790283 58.84573364 C-93.79215271 59.98847748 -93.79640259 61.13122131 -93.80078125 62.30859375 C-93.80648132 63.49621307 -93.8121814 64.6838324 -93.8180542 65.90744019 C-93.8274935 68.4207063 -93.83403393 70.93398474 -93.83789062 73.44726562 C-93.84756772 77.26584893 -93.87859061 81.08388732 -93.91015625 84.90234375 C-93.91668974 87.35025724 -93.92193885 89.79817456 -93.92578125 92.24609375 C-93.93812805 93.3766922 -93.95047485 94.50729065 -93.9631958 95.67214966 C-93.92964617 107.79223399 -91.22281741 118.78801162 -82.96875 127.9921875 C-74.04841274 136.25022594 -63.61297265 137.65408087 -51.94140625 137.453125 C-43.00086174 137.06381619 -34.96432123 133.47263631 -28.59765625 127.17578125 C-19.9541378 116.58747114 -18.4461631 105.67183568 -18.39453125 92.3828125 C-18.38883118 91.24100021 -18.3831311 90.09918793 -18.3772583 88.92277527 C-18.36782923 86.50964274 -18.36128265 84.09649747 -18.35742188 81.68334961 C-18.34773607 78.01848487 -18.31669991 74.35418595 -18.28515625 70.68945312 C-18.27862336 68.33724289 -18.27337401 65.98502867 -18.26953125 63.6328125 C-18.25101105 62.00724174 -18.25101105 62.00724174 -18.2321167 60.34883118 C-18.26532185 48.83193795 -20.75797591 37.79251583 -28.53515625 28.98046875 C-36.1436525 21.61653131 -44.93044879 18.62683748 -55.41796875 18.08203125 C-67.69158881 18.44390703 -76.96261793 22.1039849 -85.41015625 30.92578125 Z " fill="#0259C9" transform="translate(902.59765625,156.82421875)"/>
<path d="M0 0 C17.64196757 16.47586737 26.8340733 41.90931275 27.80859375 65.63574219 C28.23091385 79.88059925 28.09308126 93.79701895 24.6875 107.6875 C24.52121094 108.368125 24.35492187 109.04875 24.18359375 109.75 C20.43942647 124.39385425 13.81027175 137.40547422 3.6875 148.6875 C3.17058594 149.29722656 2.65367187 149.90695312 2.12109375 150.53515625 C-12.14383823 166.23015659 -33.83479779 172.60260034 -54.35351562 173.61279297 C-77.35995184 174.31776618 -98.99843795 168.38521765 -116.3125 152.6875 C-135.83615239 134.21836587 -143.52272283 108.26527216 -144.59375 82.01171875 C-145.25239903 54.71794536 -140.22083262 26.52104467 -121.3125 5.6875 C-120.56226563 4.84445313 -119.81203125 4.00140625 -119.0390625 3.1328125 C-88.24037236 -29.65932036 -33.24287077 -26.92343395 0 0 Z M-84.0625 25.375 C-94.55798034 36.16202146 -96.4437232 49.94713348 -96.515625 64.3125 C-96.52132507 65.21766357 -96.52702515 66.12282715 -96.53289795 67.05541992 C-96.54229806 68.96483206 -96.54886194 70.87426006 -96.55273438 72.78369141 C-96.5623795 75.65166915 -96.59342599 78.51891046 -96.625 81.38671875 C-96.71860859 97.49436813 -96.4841962 113.2419571 -85.34375 125.9296875 C-77.62317404 133.56634416 -68.89286399 136.02217233 -58.1875 136.125 C-46.72365969 135.93341882 -38.86063715 133.00827128 -30.625 125.05859375 C-21.27784252 114.98703156 -19.99003615 101.87975103 -20.046875 88.68359375 C-20.04496155 87.6796608 -20.0430481 86.67572784 -20.04107666 85.64137268 C-20.03972616 83.53638455 -20.04334246 81.43138776 -20.05175781 79.32641602 C-20.06248481 76.12952759 -20.05181761 72.93319954 -20.0390625 69.73632812 C-20.04038408 67.67708211 -20.04294643 65.61783644 -20.046875 63.55859375 C-20.04282654 62.61664658 -20.03877808 61.6746994 -20.03460693 60.70420837 C-20.12392124 47.88696361 -23.01607725 35.08282087 -32.3125 25.6875 C-48.97664124 13.44722688 -67.04069864 14.92980371 -84.0625 25.375 Z " fill="#0259C9" transform="translate(1087.3125,158.3125)"/>
<path d="M0 0 C15.18 0 30.36 0 46 0 C46 73.92 46 147.84 46 224 C53.92 224 61.84 224 70 224 C70 236.54 70 249.08 70 262 C24.96845015 262.44807512 24.96845015 262.44807512 11.8828125 251.87890625 C1.27458376 241.29268628 -0.30511747 228.36742619 -0.37468398 214.08024931 C-0.37320575 210.98666412 -0.35702119 207.89334381 -0.34057617 204.79980469 C-0.33972887 202.56161002 -0.34020704 200.32341452 -0.34190369 198.08522034 C-0.34276105 192.0385292 -0.32517718 185.99201821 -0.30418181 179.94536877 C-0.28537181 173.61530163 -0.28366117 167.28522993 -0.28010559 160.95513916 C-0.27185396 150.34001196 -0.25314155 139.72495553 -0.22631836 129.10986328 C-0.19873325 118.1818067 -0.17752154 107.25376802 -0.16479492 96.32568359 C-0.16400675 95.65078828 -0.16321858 94.97589297 -0.16240653 94.28054628 C-0.15849109 90.89440983 -0.15470004 87.50827325 -0.15097082 84.12213659 C-0.11992829 56.08136837 -0.06465425 28.04071198 0 0 Z " fill="#0259C9" transform="translate(1126,70)"/>
</svg>
